<svg xmlns="http://www.w3.org/2000/svg" width="256" height="256" viewBox="0 0 256 256">
  <defs>
    <linearGradient id="accent" x1="66" y1="54" x2="190" y2="202" gradientUnits="userSpaceOnUse">
      <stop offset="0" stop-color="#ff83bc"/>
      <stop offset="1" stop-color="#ff4fa3"/>
    </linearGradient>
  </defs>
  <circle cx="128" cy="128" r="126" fill="url(#accent)"/>
  <g fill="#111111">
    <rect x="112" y="2" width="32" height="96" rx="10"/>
    <rect x="112" y="2" width="32" height="96" rx="10" transform="rotate(45 128 128)"/>
    <rect x="112" y="2" width="32" height="96" rx="10" transform="rotate(90 128 128)"/>
    <rect x="112" y="2" width="32" height="96" rx="10" transform="rotate(135 128 128)"/>
    <rect x="112" y="2" width="32" height="96" rx="10" transform="rotate(180 128 128)"/>
    <rect x="112" y="2" width="32" height="96" rx="10" transform="rotate(225 128 128)"/>
    <rect x="112" y="2" width="32" height="96" rx="10" transform="rotate(270 128 128)"/>
    <rect x="112" y="2" width="32" height="96" rx="10" transform="rotate(315 128 128)"/>
    <circle cx="128" cy="128" r="82"/>
  </g>
  <circle cx="128" cy="128" r="34" fill="url(#accent)"/>
</svg>
